<svg width="163" height="61" viewBox="0 0 163 61" fill="none" xmlns="http://www.w3.org/2000/svg">
<path d="M58.1665 41.6214V16.5501H71.6853C73.8858 16.5501 75.6766 17.229 77.0577 18.5867C78.3686 19.8976 79.0241 21.5246 79.0241 23.4675C79.0241 26.581 77.7015 28.6761 75.0562 29.7529V29.8231C77.2567 30.3849 78.474 32.3396 78.7081 35.6871C78.7783 36.6937 78.8485 37.7003 78.9187 38.7069C79.0592 40.0646 79.3401 41.0361 79.7615 41.6214H74.2486C73.9911 40.9893 73.7921 40.0412 73.6517 38.7771C73.558 37.7237 73.4644 36.6703 73.3708 35.6169C73.1835 34.2592 72.7738 33.2877 72.1418 32.7025C71.5332 32.1172 70.55 31.8246 69.1922 31.8246H63.6794V41.6214H58.1665ZM63.6794 20.834V27.8919H69.7189C72.2471 27.8919 73.5112 26.698 73.5112 24.3103C73.5112 21.9928 72.2471 20.834 69.7189 20.834H63.6794ZM100.186 33.7559H87.089C87.2295 36.8225 88.7159 38.3558 91.5485 38.3558C92.5082 38.3558 93.3744 38.0983 94.1469 37.5833C94.8726 37.1385 95.3173 36.6118 95.4812 36.0032H99.8704C98.5361 40.0763 95.7036 42.1129 91.3729 42.1129C88.5404 42.1129 86.2814 41.2351 84.5959 39.4794C82.9339 37.7003 82.1029 35.3945 82.1029 32.562C82.1029 29.7997 82.9573 27.5173 84.6662 25.7148C86.3984 23.8889 88.634 22.9759 91.3729 22.9759C94.3224 22.9759 96.6048 24.0762 98.2201 26.2766C99.7183 28.2898 100.374 30.7829 100.186 33.7559ZM87.089 30.5956H95.2003C94.7321 28.0206 93.4095 26.7331 91.2324 26.7331C89.8279 26.7331 88.7511 27.2013 88.002 28.1377C87.4401 28.8399 87.1358 29.6593 87.089 30.5956ZM114.45 34.5986V32.7376C114.052 33.0887 113.186 33.3579 111.852 33.5452C110.33 33.7793 109.324 34.0017 108.832 34.2123C107.849 34.6571 107.357 35.4062 107.357 36.4596C107.357 38.0046 108.376 38.7771 110.412 38.7771C113.104 38.7771 114.45 37.3843 114.45 34.5986ZM107.919 29.0506H102.933C103.073 26.897 104.022 25.3052 105.777 24.2752C107.229 23.409 109.125 22.9759 111.466 22.9759C116.78 22.9759 119.436 24.6965 119.436 28.1377V37.5833C119.436 39.5965 119.647 40.9425 120.069 41.6214H115.012C114.801 40.9659 114.684 40.3807 114.661 39.8657C113.233 41.3639 111.196 42.1129 108.551 42.1129C106.725 42.1129 105.262 41.6682 104.162 40.7786C102.968 39.8188 102.371 38.4494 102.371 36.6703C102.371 34.821 103.015 33.4398 104.302 32.5269C105.239 31.8948 106.655 31.4384 108.551 31.1575C111.243 30.7829 112.613 30.5839 112.66 30.5605C113.853 30.2562 114.45 29.6593 114.45 28.7697C114.45 27.7865 114.123 27.1077 113.467 26.7331C112.999 26.4522 112.25 26.3118 111.22 26.3118C109.183 26.3118 108.083 27.2247 107.919 29.0506ZM136.264 41.6214V39.3038H136.193C135.093 41.1766 133.256 42.1129 130.681 42.1129C128.082 42.1129 126.046 41.1181 124.571 39.1283C123.213 37.3258 122.534 35.0785 122.534 32.3864C122.534 29.7646 123.213 27.5876 124.571 25.8553C126.046 23.9357 128.047 22.9759 130.575 22.9759C133.01 22.9759 134.812 23.8772 135.983 25.6797H136.018V16.5501H141.004V41.6214H136.264ZM136.193 32.4918C136.193 30.8297 135.889 29.4954 135.28 28.4888C134.531 27.3183 133.408 26.7331 131.91 26.7331C130.388 26.7331 129.253 27.33 128.503 28.5239C127.848 29.5305 127.52 30.8648 127.52 32.5269C127.52 34.1187 127.871 35.4413 128.574 36.4947C129.346 37.7354 130.458 38.3558 131.91 38.3558C134.765 38.3558 136.193 36.4011 136.193 32.4918ZM161.311 23.4675L153.727 43.9037C153.188 45.3785 152.439 46.4319 151.479 47.064C150.52 47.696 149.185 48.0121 147.476 48.0121C146.563 48.0121 145.545 47.9535 144.422 47.8365V43.7282C146.177 43.8686 147.149 43.9272 147.336 43.9037C148.624 43.8101 149.267 43.0493 149.267 41.6214C149.267 41.2234 149.197 40.8489 149.057 40.4977L142.666 23.4675H148.003L152.111 35.8978H152.182L156.15 23.4675H161.311Z" fill="white"/>
<path d="M15.1577 24.1596V36.6188L25.9003 42.8482V30.3892L15.1577 24.1596Z" fill="#5A5A89"/>
<path d="M36.6488 24.1596L25.9062 30.3892V42.8482L36.6488 36.6188V24.1596Z" fill="#383874"/>
<path d="M15.1577 24.163L25.9003 30.3926L36.6429 24.163L25.9003 17.9335L15.1577 24.163Z" fill="#8676FF"/>
<path d="M15.2307 53.4182L25.938 59.6272V51.2172L15.2307 45.0081V53.4182Z" fill="white"/>
<path d="M0.729004 45.0154L7.98035 49.2203V19.9822L0.729004 15.7773V45.0154Z" fill="white"/>
<path d="M43.9082 19.9822V40.8105L33.2009 47.0196L40.4523 51.2246L51.1596 45.0155V15.7773L43.9082 19.9822Z" fill="white"/>
<path d="M25.9216 51.2199V59.6299L33.173 55.4249L25.9216 51.2199Z" fill="white"/>
<path d="M43.8981 19.979L51.149 15.7738L25.939 1.15469L0.729004 15.7738L7.98035 19.9788L25.939 9.56479L43.8981 19.979Z" fill="white"/>
</svg>
